<svg width="78" height="69" viewBox="0 0 78 69" fill="none" xmlns="http://www.w3.org/2000/svg">
<path d="M6.78852 31.0453H74.6096C75.509 31.0453 76.3715 31.4026 77.0075 32.0385C77.6434 32.6745 78.0007 33.537 78.0007 34.4363C78.0007 35.3357 77.6434 36.1982 77.0075 36.8342C76.3715 37.4701 75.509 37.8274 74.6096 37.8274H6.78852C5.88915 37.8274 5.02663 37.4701 4.39068 36.8342C3.75473 36.1982 3.39746 35.3357 3.39746 34.4363C3.39746 33.537 3.75473 32.6745 4.39068 32.0385C5.02663 31.4026 5.88915 31.0453 6.78852 31.0453Z" fill="black"/>
<path d="M8.19207 34.4363L36.3175 62.555C36.9542 63.1917 37.312 64.0553 37.312 64.9558C37.312 65.8563 36.9542 66.7199 36.3175 67.3567C35.6807 67.9934 34.8171 68.3512 33.9166 68.3512C33.0161 68.3512 32.1525 67.9934 31.5158 67.3567L0.99625 36.8372C0.680453 36.5222 0.429903 36.148 0.25895 35.736C0.0879969 35.324 0 34.8824 0 34.4363C0 33.9903 0.0879969 33.5486 0.25895 33.1366C0.429903 32.7247 0.680453 32.3505 0.99625 32.0355L31.5158 1.51596C32.1525 0.879206 33.0161 0.521484 33.9166 0.521484C34.8171 0.521484 35.6807 0.879206 36.3175 1.51596C36.9542 2.15271 37.312 3.01632 37.312 3.91682C37.312 4.81732 36.9542 5.68094 36.3175 6.31769L8.19207 34.4363Z" fill="black"/>
</svg>
