<svg width="59" height="30" viewBox="0 0 59 30" fill="none" xmlns="http://www.w3.org/2000/svg">
<g clip-path="url(#clip0_42_140)">
<path fill-rule="evenodd" clip-rule="evenodd" d="M16.3193 0.5C15.5907 0.5 15 1.09018 15 1.81818C15 2.54619 15.5907 3.13636 16.3193 3.13636H17.9278L22.6301 21.9296C21.2439 22.5447 20.2772 23.9323 20.2772 25.5455C20.2772 27.7295 22.0492 29.5 24.2351 29.5C26.421 29.5 28.193 27.7295 28.193 25.5455C28.193 25.0833 28.1135 24.6396 27.9678 24.2273H33.6954C33.5496 24.6396 33.4702 25.0833 33.4702 25.5455C33.4702 27.7295 35.2421 29.5 37.428 29.5C39.614 29.5 41.3859 27.7295 41.3859 25.5455C41.3859 23.3614 39.614 21.5909 37.428 21.5909H25.2652L24.6055 18.9545H37.428C40.1513 18.9545 41.7842 17.2355 42.6903 15.3373C43.5758 13.4824 43.884 11.2655 43.9915 9.65303C44.1411 7.40746 42.2834 5.77273 40.2264 5.77273H21.3073L20.4876 2.49695C20.194 1.32332 19.1386 0.5 17.9278 0.5H16.3193ZM37.428 16.3182H23.9459L21.9669 8.40909H40.2264C40.9561 8.40909 41.3942 8.94526 41.3588 9.47785C41.2585 10.9824 40.9777 12.801 40.3089 14.2024C39.6606 15.5604 38.7739 16.3182 37.428 16.3182ZM37.428 26.8555C36.7039 26.8555 36.1169 26.269 36.1169 25.5455C36.1169 24.8219 36.7039 24.2354 37.428 24.2354C38.1522 24.2354 38.7392 24.8219 38.7392 25.5455C38.7392 26.269 38.1522 26.8555 37.428 26.8555ZM22.9239 25.5455C22.9239 26.269 23.5109 26.8555 24.2351 26.8555C24.9592 26.8555 25.5462 26.269 25.5462 25.5455C25.5462 24.8219 24.9592 24.2354 24.2351 24.2354C23.5109 24.2354 22.9239 24.8219 22.9239 25.5455Z" fill="black"/>
</g>
<defs>
<clipPath id="clip0_42_140">
<rect width="29" height="29" fill="white" transform="translate(15 0.5)"/>
</clipPath>
</defs>
</svg>
