<svg width="20" height="20" viewBox="0 0 20 21" fill="none" xmlns="http://www.w3.org/2000/svg">
<g clip-path="url(#clip0_85_155)">
<path fill-rule="evenodd" clip-rule="evenodd" d="M10 15.9286C12.7614 15.9286 15 13.69 15 10.9286C15 8.16716 12.7614 5.92859 10 5.92859C7.23858 5.92859 5 8.16716 5 10.9286C5 13.69 7.23858 15.9286 10 15.9286ZM10 14.2619C11.8409 14.2619 13.3333 12.7695 13.3333 10.9286C13.3333 9.08764 11.8409 7.59526 10 7.59526C8.15905 7.59526 6.66667 9.08764 6.66667 10.9286C6.66667 12.7695 8.15905 14.2619 10 14.2619Z" fill="#0F0F0F"/>
<path d="M14.9998 5.09528C14.5396 5.09528 14.1665 5.46838 14.1665 5.92861C14.1665 6.38884 14.5396 6.76194 14.9998 6.76194C15.4601 6.76194 15.8332 6.38884 15.8332 5.92861C15.8332 5.46838 15.4601 5.09528 14.9998 5.09528Z" fill="#0F0F0F"/>
<path fill-rule="evenodd" clip-rule="evenodd" d="M1.37846 4.49195C0.833496 5.56151 0.833496 6.96164 0.833496 9.7619V12.0952C0.833496 14.8955 0.833496 16.2957 1.37846 17.3652C1.85783 18.306 2.62273 19.0709 3.56355 19.5502C4.6331 20.0952 6.03324 20.0952 8.8335 20.0952H11.1668C13.9671 20.0952 15.3672 20.0952 16.4367 19.5502C17.3776 19.0709 18.1425 18.306 18.6218 17.3652C19.1668 16.2957 19.1668 14.8955 19.1668 12.0952V9.7619C19.1668 6.96164 19.1668 5.56151 18.6218 4.49195C18.1425 3.55114 17.3776 2.78624 16.4367 2.30687C15.3672 1.7619 13.9671 1.7619 11.1668 1.7619H8.8335C6.03324 1.7619 4.6331 1.7619 3.56355 2.30687C2.62273 2.78624 1.85783 3.55114 1.37846 4.49195ZM11.1668 3.42857H8.8335C7.40586 3.42857 6.43537 3.42987 5.68523 3.49115C4.95453 3.55085 4.58086 3.65906 4.3202 3.79188C3.69299 4.11146 3.18305 4.62139 2.86347 5.2486C2.73065 5.50927 2.62245 5.88294 2.56275 6.61364C2.50146 7.36378 2.50016 8.33427 2.50016 9.7619V12.0952C2.50016 13.5229 2.50146 14.4933 2.56275 15.2435C2.62245 15.9742 2.73065 16.3479 2.86347 16.6086C3.18305 17.2357 3.69299 17.7456 4.3202 18.0652C4.58086 18.1981 4.95453 18.3063 5.68523 18.366C6.43537 18.4272 7.40586 18.4286 8.8335 18.4286H11.1668C12.5945 18.4286 13.5649 18.4272 14.3151 18.366C15.0458 18.3063 15.4195 18.1981 15.6802 18.0652C16.3073 17.7456 16.8172 17.2357 17.1368 16.6086C17.2697 16.3479 17.3779 15.9742 17.4376 15.2435C17.4988 14.4933 17.5002 13.5229 17.5002 12.0952V9.7619C17.5002 8.33427 17.4988 7.36378 17.4376 6.61364C17.3779 5.88294 17.2697 5.50927 17.1368 5.2486C16.8172 4.62139 16.3073 4.11146 15.6802 3.79188C15.4195 3.65906 15.0458 3.55085 14.3151 3.49115C13.5649 3.42987 12.5945 3.42857 11.1668 3.42857Z" fill="#0F0F0F"/>
</g>
<defs>
<clipPath id="clip0_85_155">
<rect width="20" height="20" fill="white" transform="translate(0 0.928589)"/>
</clipPath>
</defs>
</svg>
