<svg width="29" height="29" viewBox="0 0 29 29" fill="none" xmlns="http://www.w3.org/2000/svg">
<rect width="29" height="29" rx="14.5" fill="#D5C4AF"/>
<path fill-rule="evenodd" clip-rule="evenodd" d="M14.4998 9.5C13.9884 9.5 13.5739 9.91455 13.5739 10.4259V13.5741H10.4259C9.91455 13.5741 9.5 13.9886 9.5 14.5C9.5 15.0114 9.91455 15.4259 10.4259 15.4259H13.5739V18.5741C13.5739 19.0854 13.9884 19.5 14.4998 19.5C15.0112 19.5 15.4257 19.0854 15.4257 18.5741V15.4259H18.5741C19.0854 15.4259 19.5 15.0114 19.5 14.5C19.5 13.9886 19.0854 13.5741 18.5741 13.5741H15.4257V10.4259C15.4257 9.91455 15.0112 9.5 14.4998 9.5Z" fill="black"/>
</svg>
